<svg xmlns="http://www.w3.org/2000/svg" xmlns:xlink="http://www.w3.org/1999/xlink" viewBox="0 0 2842 3655"><defs><style>.cls-1{fill:#fff;}.cls-2{font-size:48px;font-family:Poppins-SemiBold, Poppins;font-weight:600;}</style></defs><g id="Layer_2" data-name="Layer 2"><g id="Layer_1-2" data-name="Layer 1"><image width="2842" height="3655" xlink:href="layoutimg.png"/><rect class="cls-1" x="448.65" y="1185.76" width="118.37" height="133.74" rx="7.78"/><text class="cls-2" transform="translate(498.85 1275.04) scale(1.03 1)">1</text><rect class="cls-1" x="578.73" y="1185.76" width="118.37" height="133.74" rx="7.78"/><text class="cls-2" transform="translate(623.67 1275.04) scale(1.03 1)">2</text><rect class="cls-1" x="708.81" y="1185.76" width="118.37" height="133.74" rx="7.78"/><text class="cls-2" transform="translate(753.13 1275.04) scale(1.03 1)">3</text><rect class="cls-1" x="838.89" y="1185.76" width="118.37" height="133.74" rx="7.78"/><text class="cls-2" transform="translate(881.67 1275.04) scale(1.03 1)">4</text><rect class="cls-1" x="968.98" y="1185.76" width="118.37" height="133.74" rx="7.78"/><text class="cls-2" transform="translate(1012.17 1275.04) scale(1.03 1)">5</text><rect class="cls-1" x="1099.06" y="1185.76" width="118.37" height="133.74" rx="7.78"/><text class="cls-2" transform="translate(1142.35 1275.04) scale(1.03 1)">6</text><rect class="cls-1" x="1229.14" y="1185.76" width="118.37" height="133.74" rx="7.78"/><text class="cls-2" transform="translate(1274.72 1275.04) scale(1.03 1)">7</text><rect class="cls-1" x="1359.22" y="1185.76" width="118.37" height="133.74" rx="7.78"/><text class="cls-2" transform="translate(1402.44 1275.04) scale(1.03 1)">8</text><rect class="cls-1" x="1489.3" y="1185.76" width="118.37" height="133.74" rx="7.78"/><text class="cls-2" transform="translate(1532.94 1275.04) scale(1.03 1)">9</text><rect class="cls-1" x="1619.38" y="1185.76" width="118.37" height="133.74" rx="7.78"/><text class="cls-2" transform="translate(1653.54 1275.04) scale(1.03 1)">10</text><rect class="cls-1" x="1749.46" y="1185.76" width="118.37" height="133.74" rx="7.78"/><text class="cls-2" transform="translate(1790.67 1275.04) scale(1.03 1)">11</text><rect class="cls-1" x="1879.54" y="1185.76" width="118.37" height="133.74" rx="7.78"/><text class="cls-2" transform="translate(1915.49 1275.04) scale(1.03 1)">12</text><rect class="cls-1" x="2009.62" y="1185.76" width="118.37" height="133.74" rx="7.78"/><text class="cls-2" transform="translate(2044.95 1275.04) scale(1.03 1)">13</text><rect class="cls-1" x="2139.7" y="1185.76" width="118.37" height="133.74" rx="7.78"/><text class="cls-2" transform="translate(2173.49 1275.04) scale(1.03 1)">14</text><rect class="cls-1" x="2269.78" y="1185.76" width="118.37" height="133.74" rx="7.78"/><text class="cls-2" transform="translate(2304 1275.04) scale(1.03 1)">15</text><rect class="cls-1" x="448.65" y="1335.64" width="118.37" height="133.74" rx="7.78"/><text class="cls-2" transform="translate(482.96 1424.92) scale(1.03 1)">16</text><rect class="cls-1" x="578.73" y="1335.64" width="118.37" height="133.74" rx="7.78"/><text class="cls-2" transform="translate(615.33 1424.92) scale(1.03 1)">17</text><rect class="cls-1" x="708.81" y="1335.64" width="118.37" height="133.74" rx="7.78"/><text class="cls-2" transform="translate(743.05 1424.92) scale(1.03 1)">18</text><rect class="cls-1" x="838.89" y="1335.64" width="118.37" height="133.74" rx="7.78"/><text class="cls-2" transform="translate(873.55 1424.92) scale(1.03 1)">19</text><rect class="cls-1" x="968.98" y="1335.64" width="118.37" height="133.74" rx="7.78"/><text class="cls-2" transform="translate(997.88 1424.92) scale(1.03 1)">20</text><rect class="cls-1" x="1099.06" y="1335.64" width="118.37" height="133.74" rx="7.78"/><text class="cls-2" transform="translate(1135.01 1424.92) scale(1.03 1)">21</text><rect class="cls-1" x="1229.14" y="1335.64" width="118.37" height="133.74" rx="7.78"/><text class="cls-2" transform="translate(1259.83 1424.92) scale(1.03 1)">22</text><rect class="cls-1" x="1359.22" y="1335.64" width="118.37" height="133.74" rx="7.78"/><text class="cls-2" transform="translate(1389.29 1424.92) scale(1.03 1)">23</text><rect class="cls-1" x="1489.3" y="1335.64" width="118.37" height="133.74" rx="7.78"/><text class="cls-2" transform="translate(1517.83 1424.92) scale(1.03 1)">24</text><rect class="cls-1" x="1619.38" y="1335.64" width="118.37" height="133.74" rx="7.78"/><text class="cls-2" transform="translate(1648.33 1424.92) scale(1.03 1)">25</text><rect class="cls-1" x="1749.46" y="1335.64" width="118.37" height="133.74" rx="7.78"/><text class="cls-2" transform="translate(1778.51 1424.92) scale(1.03 1)">26</text><rect class="cls-1" x="1879.54" y="1335.64" width="118.37" height="133.74" rx="7.78"/><text class="cls-2" transform="translate(1910.87 1424.92) scale(1.03 1)">27</text><rect class="cls-1" x="2009.62" y="1335.64" width="118.37" height="133.74" rx="7.78"/><text class="cls-2" transform="translate(2038.6 1424.92) scale(1.03 1)">28</text><rect class="cls-1" x="2139.7" y="1335.64" width="118.37" height="133.74" rx="7.78"/><text class="cls-2" transform="translate(2169.1 1424.92) scale(1.03 1)">29</text><rect class="cls-1" x="2269.78" y="1335.64" width="118.37" height="133.74" rx="7.78"/><text class="cls-2" transform="translate(2298.06 1424.92) scale(1.03 1)">30</text><rect class="cls-1" x="448.65" y="1485.52" width="118.37" height="133.74" rx="7.78"/><text class="cls-2" transform="translate(483.98 1574.8) scale(1.03 1)">31</text><rect class="cls-1" x="578.73" y="1485.52" width="118.37" height="133.74" rx="7.78"/><text class="cls-2" transform="translate(608.8 1574.8) scale(1.03 1)">32</text><rect class="cls-1" x="708.81" y="1485.52" width="118.37" height="133.74" rx="7.78"/><text class="cls-2" transform="translate(738.26 1574.8) scale(1.03 1)">33</text><rect class="cls-1" x="838.89" y="1485.52" width="118.37" height="133.74" rx="7.78"/><text class="cls-2" transform="translate(866.8 1574.8) scale(1.03 1)">34</text><rect class="cls-1" x="968.98" y="1485.52" width="118.37" height="133.74" rx="7.78"/><text class="cls-2" transform="translate(997.31 1574.8) scale(1.03 1)">35</text><rect class="cls-1" x="1099.06" y="1485.52" width="118.37" height="133.74" rx="7.78"/><text class="cls-2" transform="translate(1127.49 1574.8) scale(1.03 1)">36</text><rect class="cls-1" x="1229.14" y="1485.52" width="118.37" height="133.74" rx="7.78"/><text class="cls-2" transform="translate(1259.85 1574.8) scale(1.03 1)">37</text><rect class="cls-1" x="1359.22" y="1485.52" width="118.37" height="133.74" rx="7.78"/><text class="cls-2" transform="translate(1387.57 1574.8) scale(1.03 1)">38</text><rect class="cls-1" x="1489.3" y="1485.52" width="118.37" height="133.74" rx="7.78"/><text class="cls-2" transform="translate(1518.08 1574.8) scale(1.03 1)">39</text><rect class="cls-1" x="1619.38" y="1485.52" width="118.37" height="133.74" rx="7.78"/><text class="cls-2" transform="translate(1646.12 1574.8) scale(1.03 1)">40</text><rect class="cls-1" x="1749.46" y="1485.52" width="118.37" height="133.74" rx="7.78"/><text class="cls-2" transform="translate(1783.25 1574.8) scale(1.03 1)">41</text><rect class="cls-1" x="1879.54" y="1485.52" width="118.37" height="133.74" rx="7.78"/><text class="cls-2" transform="translate(1908.07 1574.8) scale(1.03 1)">42</text><rect class="cls-1" x="2009.62" y="1485.52" width="118.37" height="133.74" rx="7.78"/><text class="cls-2" transform="translate(2037.53 1574.8) scale(1.03 1)">43</text><rect class="cls-1" x="2139.7" y="1485.52" width="118.37" height="133.74" rx="7.78"/><text class="cls-2" transform="translate(2166.07 1574.8) scale(1.03 1)">44</text><rect class="cls-1" x="2269.78" y="1485.52" width="118.37" height="133.74" rx="7.78"/><text class="cls-2" transform="translate(2296.57 1574.8) scale(1.03 1)">45</text><rect class="cls-1" x="448.65" y="1635.4" width="118.37" height="133.74" rx="7.78"/><text class="cls-2" transform="translate(475.54 1724.68) scale(1.03 1)">46</text><rect class="cls-1" x="578.73" y="1635.4" width="118.37" height="133.74" rx="7.78"/><text class="cls-2" transform="translate(607.91 1724.68) scale(1.03 1)">47</text><rect class="cls-1" x="708.81" y="1635.4" width="118.37" height="133.74" rx="7.78"/><text class="cls-2" transform="translate(735.63 1724.68) scale(1.03 1)">48</text><rect class="cls-1" x="838.89" y="1635.4" width="118.37" height="133.74" rx="7.78"/><text class="cls-2" transform="translate(866.13 1724.68) scale(1.03 1)">49</text><rect class="cls-1" x="968.98" y="1635.4" width="118.37" height="133.74" rx="7.78"/><text class="cls-2" transform="translate(996.14 1724.68) scale(1.03 1)">50</text><rect class="cls-1" x="1099.06" y="1635.4" width="118.37" height="133.74" rx="7.78"/><text class="cls-2" transform="translate(1133.27 1724.68) scale(1.03 1)">51</text><rect class="cls-1" x="1229.14" y="1635.4" width="118.37" height="133.74" rx="7.78"/><text class="cls-2" transform="translate(1258.09 1724.68) scale(1.03 1)">52</text><rect class="cls-1" x="1359.22" y="1635.4" width="118.37" height="133.74" rx="7.78"/><text class="cls-2" transform="translate(1387.55 1724.68) scale(1.03 1)">53</text><rect class="cls-1" x="1489.3" y="1635.4" width="118.37" height="133.74" rx="7.78"/><text class="cls-2" transform="translate(1516.09 1724.68) scale(1.03 1)">54</text><rect class="cls-1" x="1619.38" y="1635.4" width="118.37" height="133.74" rx="7.78"/><text class="cls-2" transform="translate(1646.59 1724.68) scale(1.03 1)">55</text><rect class="cls-1" x="1749.46" y="1635.4" width="118.37" height="133.74" rx="7.78"/><text class="cls-2" transform="translate(1776.77 1724.68) scale(1.03 1)">56</text><rect class="cls-1" x="1879.54" y="1635.4" width="118.37" height="133.74" rx="7.78"/><text class="cls-2" transform="translate(1909.14 1724.68) scale(1.03 1)">57</text><rect class="cls-1" x="2009.62" y="1635.4" width="118.37" height="133.74" rx="7.78"/><text class="cls-2" transform="translate(2036.86 1724.68) scale(1.03 1)">58</text><rect class="cls-1" x="2139.7" y="1635.4" width="118.37" height="133.74" rx="7.78"/><text class="cls-2" transform="translate(2167.36 1724.68) scale(1.03 1)">59</text><rect class="cls-1" x="2269.78" y="1635.4" width="118.37" height="133.74" rx="7.78"/><text class="cls-2" transform="translate(2297.05 1724.68) scale(1.03 1)">60</text><rect class="cls-1" x="448.65" y="1785.28" width="118.37" height="133.74" rx="7.78"/><text class="cls-2" transform="translate(482.96 1874.56) scale(1.03 1)">61</text><rect class="cls-1" x="578.73" y="1785.28" width="118.37" height="133.74" rx="7.78"/><text class="cls-2" transform="translate(607.78 1874.56) scale(1.03 1)">62</text><rect class="cls-1" x="708.81" y="1785.28" width="118.37" height="133.74" rx="7.78"/><text class="cls-2" transform="translate(737.24 1874.56) scale(1.03 1)">63</text><rect class="cls-1" x="838.89" y="1785.28" width="118.37" height="133.74" rx="7.78"/><text class="cls-2" transform="translate(865.79 1874.56) scale(1.03 1)">64</text><rect class="cls-1" x="968.98" y="1785.28" width="118.37" height="133.74" rx="7.78"/><text class="cls-2" transform="translate(996.29 1874.56) scale(1.03 1)">65</text><rect class="cls-1" x="1099.06" y="1785.28" width="118.37" height="133.74" rx="7.78"/><text class="cls-2" transform="translate(1126.47 1874.56) scale(1.03 1)">66</text><rect class="cls-1" x="1229.14" y="1785.28" width="118.37" height="133.74" rx="7.78"/><text class="cls-2" transform="translate(1258.83 1874.56) scale(1.03 1)">67</text><rect class="cls-1" x="1359.22" y="1785.28" width="118.37" height="133.74" rx="7.78"/><text class="cls-2" transform="translate(1386.56 1874.56) scale(1.03 1)">68</text><rect class="cls-1" x="1489.3" y="1785.28" width="118.37" height="133.74" rx="7.78"/><text class="cls-2" transform="translate(1517.06 1874.56) scale(1.03 1)">69</text><rect class="cls-1" x="1619.38" y="1785.28" width="118.37" height="133.74" rx="7.78"/><text class="cls-2" transform="translate(1648.93 1874.56) scale(1.03 1)">70</text><rect class="cls-1" x="1749.46" y="1785.28" width="118.37" height="133.74" rx="7.78"/><text class="cls-2" transform="translate(1786.06 1874.56) scale(1.03 1)">71</text><rect class="cls-1" x="1879.54" y="1785.28" width="118.37" height="133.74" rx="7.78"/><text class="cls-2" transform="translate(1910.87 1874.56) scale(1.03 1)">72</text><rect class="cls-1" x="2009.62" y="1785.28" width="118.37" height="133.74" rx="7.78"/><text class="cls-2" transform="translate(2040.33 1874.56) scale(1.03 1)">73</text><rect class="cls-1" x="2139.7" y="1785.28" width="118.37" height="133.74" rx="7.78"/><text class="cls-2" transform="translate(2168.88 1874.56) scale(1.03 1)">74</text><rect class="cls-1" x="2269.78" y="1785.28" width="118.37" height="133.74" rx="7.78"/><text class="cls-2" transform="translate(2299.38 1874.56) scale(1.03 1)">75</text><rect class="cls-1" x="448.65" y="1935.16" width="118.37" height="133.74" rx="7.78"/><text class="cls-2" transform="translate(478.35 2024.43) scale(1.03 1)">76</text><rect class="cls-1" x="578.73" y="1935.16" width="118.37" height="133.74" rx="7.78"/><text class="cls-2" transform="translate(610.71 2024.43) scale(1.03 1)">77</text><rect class="cls-1" x="708.81" y="1935.16" width="118.37" height="133.74" rx="7.78"/><text class="cls-2" transform="translate(738.43 2024.43) scale(1.03 1)">78</text><rect class="cls-1" x="838.89" y="1935.16" width="118.37" height="133.74" rx="7.78"/><text class="cls-2" transform="translate(868.94 2024.43) scale(1.03 1)">79</text><rect class="cls-1" x="968.98" y="1935.16" width="118.37" height="133.74" rx="7.78"/><text class="cls-2" transform="translate(996.16 2024.43) scale(1.03 1)">80</text><rect class="cls-1" x="1099.06" y="1935.16" width="118.37" height="133.74" rx="7.78"/><text class="cls-2" transform="translate(1133.29 2024.43) scale(1.03 1)">81</text><rect class="cls-1" x="1229.14" y="1935.16" width="118.37" height="133.74" rx="7.78"/><text class="cls-2" transform="translate(1258.11 2024.43) scale(1.03 1)">82</text><rect class="cls-1" x="1359.22" y="1935.16" width="118.37" height="133.74" rx="7.78"/><text class="cls-2" transform="translate(1387.57 2024.43) scale(1.03 1)">83</text><rect class="cls-1" x="1489.3" y="1935.16" width="118.37" height="133.74" rx="7.78"/><text class="cls-2" transform="translate(1516.11 2024.43) scale(1.03 1)">84</text><rect class="cls-1" x="1619.38" y="1935.16" width="118.37" height="133.74" rx="7.78"/><text class="cls-2" transform="translate(1646.62 2024.43) scale(1.03 1)">85</text><rect class="cls-1" x="1749.46" y="1935.16" width="118.37" height="133.74" rx="7.78"/><text class="cls-2" transform="translate(1776.8 2024.43) scale(1.03 1)">86</text><rect class="cls-1" x="1879.54" y="1935.16" width="118.37" height="133.74" rx="7.78"/><text class="cls-2" transform="translate(1909.16 2024.43) scale(1.03 1)">87</text><rect class="cls-1" x="2009.62" y="1935.16" width="118.37" height="133.74" rx="7.78"/><text class="cls-2" transform="translate(2036.88 2024.43) scale(1.03 1)">88</text><rect class="cls-1" x="2139.7" y="1935.16" width="118.37" height="133.74" rx="7.78"/><text class="cls-2" transform="translate(2167.39 2024.43) scale(1.03 1)">89</text><rect class="cls-1" x="2269.78" y="1935.16" width="118.37" height="133.74" rx="7.78"/><text class="cls-2" transform="translate(2297.39 2024.43) scale(1.03 1)">90</text><rect class="cls-1" x="448.65" y="2085.03" width="118.37" height="133.74" rx="7.78"/><text class="cls-2" transform="translate(483.31 2174.31) scale(1.03 1)">91</text><rect class="cls-1" x="578.73" y="2085.03" width="118.37" height="133.74" rx="7.78"/><text class="cls-2" transform="translate(608.13 2174.31) scale(1.03 1)">92</text><rect class="cls-1" x="708.81" y="2085.03" width="118.37" height="133.74" rx="7.78"/><text class="cls-2" transform="translate(737.59 2174.31) scale(1.03 1)">93</text><rect class="cls-1" x="838.89" y="2085.03" width="118.37" height="133.74" rx="7.78"/><text class="cls-2" transform="translate(866.13 2174.31) scale(1.03 1)">94</text><rect class="cls-1" x="968.98" y="2085.03" width="118.37" height="133.74" rx="7.78"/><text class="cls-2" transform="translate(996.64 2174.31) scale(1.03 1)">95</text><rect class="cls-1" x="1099.06" y="2085.03" width="118.37" height="133.74" rx="7.78"/><text class="cls-2" transform="translate(1126.82 2174.31) scale(1.03 1)">96</text><rect class="cls-1" x="1229.14" y="2085.03" width="118.37" height="133.74" rx="7.78"/><text class="cls-2" transform="translate(1259.18 2174.31) scale(1.03 1)">97</text><rect class="cls-1" x="1359.22" y="2085.03" width="118.37" height="133.74" rx="7.78"/><text class="cls-2" transform="translate(1386.9 2174.31) scale(1.03 1)">98</text><rect class="cls-1" x="1489.3" y="2085.03" width="118.37" height="133.74" rx="7.78"/><text class="cls-2" transform="translate(1517.41 2174.31) scale(1.03 1)">99</text><rect class="cls-1" x="1619.38" y="2085.03" width="118.37" height="133.74" rx="7.78"/><text class="cls-2" transform="translate(1637.51 2174.31) scale(1.03 1)">100</text><rect class="cls-1" x="1749.46" y="2085.03" width="118.37" height="133.74" rx="7.78"/><text class="cls-2" transform="translate(1774.64 2174.31) scale(1.03 1)">101</text><rect class="cls-1" x="1879.54" y="2085.03" width="118.37" height="133.74" rx="7.78"/><text class="cls-2" transform="translate(1899.46 2174.31) scale(1.03 1)">102</text><rect class="cls-1" x="2009.62" y="2085.03" width="118.37" height="133.74" rx="7.78"/><text class="cls-2" transform="translate(2028.92 2174.31) scale(1.03 1)">103</text><rect class="cls-1" x="2139.7" y="2085.03" width="118.37" height="133.74" rx="7.78"/><text class="cls-2" transform="translate(2157.46 2174.31) scale(1.03 1)">104</text><rect class="cls-1" x="2269.78" y="2085.03" width="118.37" height="133.74" rx="7.78"/><text class="cls-2" transform="translate(2287.96 2174.31) scale(1.03 1)">105</text><rect class="cls-1" x="448.65" y="2234.91" width="118.37" height="133.74" rx="7.78"/><text class="cls-2" transform="translate(466.93 2324.19) scale(1.03 1)">106</text><rect class="cls-1" x="578.73" y="2234.91" width="118.37" height="133.74" rx="7.78"/><text class="cls-2" transform="translate(599.29 2324.19) scale(1.03 1)">107</text><rect class="cls-1" x="708.81" y="2234.91" width="118.37" height="133.74" rx="7.78"/><text class="cls-2" transform="translate(727.02 2324.19) scale(1.03 1)">108</text><rect class="cls-1" x="838.89" y="2234.91" width="118.37" height="133.74" rx="7.78"/><text class="cls-2" transform="translate(857.52 2324.19) scale(1.03 1)">109</text><rect class="cls-1" x="968.98" y="2234.91" width="118.37" height="133.74" rx="7.78"/><text class="cls-2" transform="translate(994.15 2324.19) scale(1.03 1)">110</text><rect class="cls-1" x="1099.06" y="2234.91" width="118.37" height="133.74" rx="7.78"/><text class="cls-2" transform="translate(1131.28 2324.19) scale(1.03 1)">111</text><rect class="cls-1" x="1229.14" y="2234.91" width="118.37" height="133.74" rx="7.78"/><text class="cls-2" transform="translate(1256.1 2324.19) scale(1.03 1)">112</text><rect class="cls-1" x="1359.22" y="2234.91" width="118.37" height="133.74" rx="7.78"/><text class="cls-2" transform="translate(1385.56 2324.19) scale(1.03 1)">113</text><rect class="cls-1" x="1489.3" y="2234.91" width="118.37" height="133.74" rx="7.78"/><text class="cls-2" transform="translate(1514.1 2324.19) scale(1.03 1)">114</text><rect class="cls-1" x="1619.38" y="2234.91" width="118.37" height="133.74" rx="7.78"/><text class="cls-2" transform="translate(1644.61 2324.19) scale(1.03 1)">115</text><rect class="cls-1" x="1749.46" y="2234.91" width="118.37" height="133.74" rx="7.78"/><text class="cls-2" transform="translate(1774.79 2324.19) scale(1.03 1)">116</text><rect class="cls-1" x="1879.54" y="2234.91" width="118.37" height="133.74" rx="7.78"/><text class="cls-2" transform="translate(1907.15 2324.19) scale(1.03 1)">117</text><rect class="cls-1" x="2009.62" y="2234.91" width="118.37" height="133.74" rx="7.78"/><text class="cls-2" transform="translate(2034.87 2324.19) scale(1.03 1)">118</text><rect class="cls-1" x="2139.7" y="2234.91" width="118.37" height="133.74" rx="7.78"/><text class="cls-2" transform="translate(2165.38 2324.19) scale(1.03 1)">119</text><rect class="cls-1" x="2269.78" y="2234.91" width="118.37" height="133.74" rx="7.78"/><text class="cls-2" transform="translate(2289.7 2324.19) scale(1.03 1)">120</text><rect class="cls-1" x="448.65" y="2384.79" width="118.37" height="133.74" rx="7.78"/><text class="cls-2" transform="translate(475.62 2474.07) scale(1.03 1)">121</text><rect class="cls-1" x="578.73" y="2384.79" width="118.37" height="133.74" rx="7.78"/><text class="cls-2" transform="translate(600.44 2474.07) scale(1.03 1)">122</text><rect class="cls-1" x="708.81" y="2384.79" width="118.37" height="133.74" rx="7.78"/><text class="cls-2" transform="translate(729.9 2474.07) scale(1.03 1)">123</text><rect class="cls-1" x="838.89" y="2384.79" width="118.37" height="133.74" rx="7.78"/><text class="cls-2" transform="translate(858.44 2474.07) scale(1.03 1)">124</text><rect class="cls-1" x="968.98" y="2384.79" width="118.37" height="133.74" rx="7.78"/><text class="cls-2" transform="translate(988.94 2474.07) scale(1.03 1)">125</text><rect class="cls-1" x="1099.06" y="2384.79" width="118.37" height="133.74" rx="7.78"/><text class="cls-2" transform="translate(1119.12 2474.07) scale(1.03 1)">126</text><rect class="cls-1" x="1229.14" y="2384.79" width="118.37" height="133.74" rx="7.78"/><text class="cls-2" transform="translate(1251.49 2474.07) scale(1.03 1)">127</text><rect class="cls-1" x="1359.22" y="2384.79" width="118.37" height="133.74" rx="7.78"/><text class="cls-2" transform="translate(1379.21 2474.07) scale(1.03 1)">128</text><rect class="cls-1" x="1489.3" y="2384.79" width="118.37" height="133.74" rx="7.78"/><text class="cls-2" transform="translate(1509.71 2474.07) scale(1.03 1)">129</text><rect class="cls-1" x="1619.38" y="2384.79" width="118.37" height="133.74" rx="7.78"/><text class="cls-2" transform="translate(1638.67 2474.07) scale(1.03 1)">130</text><rect class="cls-1" x="1749.46" y="2384.79" width="118.37" height="133.74" rx="7.78"/><text class="cls-2" transform="translate(1775.8 2474.07) scale(1.03 1)">131</text><rect class="cls-1" x="1879.54" y="2384.79" width="118.37" height="133.74" rx="7.78"/><text class="cls-2" transform="translate(1900.62 2474.07) scale(1.03 1)">132</text><rect class="cls-1" x="2009.62" y="2384.79" width="118.37" height="133.74" rx="7.78"/><text class="cls-2" transform="translate(2030.08 2474.07) scale(1.03 1)">133</text><rect class="cls-1" x="2139.7" y="2384.79" width="118.37" height="133.74" rx="7.78"/><text class="cls-2" transform="translate(2158.62 2474.07) scale(1.03 1)">134</text><rect class="cls-1" x="2269.78" y="2384.79" width="118.37" height="133.74" rx="7.78"/><text class="cls-2" transform="translate(2289.13 2474.07) scale(1.03 1)">135</text><rect class="cls-1" x="448.65" y="2534.67" width="118.37" height="133.74" rx="7.78"/><text class="cls-2" transform="translate(468.1 2623.95) scale(1.03 1)">136</text><rect class="cls-1" x="578.73" y="2534.67" width="118.37" height="133.74" rx="7.78"/><text class="cls-2" transform="translate(600.46 2623.95) scale(1.03 1)">137</text><rect class="cls-1" x="708.81" y="2534.67" width="118.37" height="133.74" rx="7.78"/><text class="cls-2" transform="translate(728.18 2623.95) scale(1.03 1)">138</text><rect class="cls-1" x="838.89" y="2534.67" width="118.37" height="133.74" rx="7.78"/><text class="cls-2" transform="translate(858.69 2623.95) scale(1.03 1)">139</text><rect class="cls-1" x="968.98" y="2534.67" width="118.37" height="133.74" rx="7.78"/><text class="cls-2" transform="translate(986.73 2623.95) scale(1.03 1)">140</text><rect class="cls-1" x="1099.06" y="2534.67" width="118.37" height="133.74" rx="7.78"/><text class="cls-2" transform="translate(1123.86 2623.95) scale(1.03 1)">141</text><rect class="cls-1" x="1229.14" y="2534.67" width="118.37" height="133.74" rx="7.78"/><text class="cls-2" transform="translate(1248.68 2623.95) scale(1.03 1)">142</text><rect class="cls-1" x="1359.22" y="2534.67" width="118.37" height="133.74" rx="7.78"/><text class="cls-2" transform="translate(1378.14 2623.95) scale(1.03 1)">143</text><rect class="cls-1" x="1489.3" y="2534.67" width="118.37" height="133.74" rx="7.78"/><text class="cls-2" transform="translate(1506.68 2623.95) scale(1.03 1)">144</text><rect class="cls-1" x="1619.38" y="2534.67" width="118.37" height="133.74" rx="7.78"/><text class="cls-2" transform="translate(1637.18 2623.95) scale(1.03 1)">145</text><rect class="cls-1" x="1749.46" y="2534.67" width="118.37" height="133.74" rx="7.78"/><text class="cls-2" transform="translate(1767.36 2623.95) scale(1.03 1)">146</text><rect class="cls-1" x="1879.54" y="2534.67" width="118.37" height="133.74" rx="7.78"/><text class="cls-2" transform="translate(1899.73 2623.95) scale(1.03 1)">147</text><rect class="cls-1" x="2009.62" y="2534.67" width="118.37" height="133.74" rx="7.78"/><text class="cls-2" transform="translate(2027.45 2623.95) scale(1.03 1)">148</text><rect class="cls-1" x="2139.7" y="2534.67" width="118.37" height="133.74" rx="7.78"/><text class="cls-2" transform="translate(2157.95 2623.95) scale(1.03 1)">149</text><rect class="cls-1" x="2269.78" y="2534.67" width="118.37" height="133.74" rx="7.78"/><text class="cls-2" transform="translate(2287.96 2623.95) scale(1.03 1)">150</text><rect class="cls-1" x="448.65" y="2684.55" width="118.37" height="133.74" rx="7.78"/><text class="cls-2" transform="translate(473.88 2773.83) scale(1.03 1)">151</text><rect class="cls-1" x="578.73" y="2684.55" width="118.37" height="133.74" rx="7.78"/><text class="cls-2" transform="translate(598.7 2773.83) scale(1.03 1)">152</text><rect class="cls-1" x="708.81" y="2684.55" width="118.37" height="133.74" rx="7.78"/><text class="cls-2" transform="translate(728.16 2773.83) scale(1.03 1)">153</text><rect class="cls-1" x="838.89" y="2684.55" width="118.37" height="133.74" rx="7.78"/><text class="cls-2" transform="translate(856.7 2773.83) scale(1.03 1)">154</text><rect class="cls-1" x="968.98" y="2684.55" width="118.37" height="133.74" rx="7.78"/><text class="cls-2" transform="translate(987.2 2773.83) scale(1.03 1)">155</text><rect class="cls-1" x="1099.06" y="2684.55" width="118.37" height="133.74" rx="7.78"/><text class="cls-2" transform="translate(1117.38 2773.83) scale(1.03 1)">156</text><rect class="cls-1" x="1229.14" y="2684.55" width="118.37" height="133.74" rx="7.78"/><text class="cls-2" transform="translate(1249.75 2773.83) scale(1.03 1)">157</text><rect class="cls-1" x="1359.22" y="2684.55" width="118.37" height="133.74" rx="7.78"/><text class="cls-2" transform="translate(1377.47 2773.83) scale(1.03 1)">158</text><rect class="cls-1" x="1489.3" y="2684.55" width="118.37" height="133.74" rx="7.78"/><text class="cls-2" transform="translate(1507.97 2773.83) scale(1.03 1)">159</text><rect class="cls-1" x="1619.38" y="2684.55" width="118.37" height="133.74" rx="7.78"/><text class="cls-2" transform="translate(1637.66 2773.83) scale(1.03 1)">160</text><rect class="cls-1" x="1749.46" y="2684.55" width="118.37" height="133.74" rx="7.78"/><text class="cls-2" transform="translate(1774.79 2773.83) scale(1.03 1)">161</text><rect class="cls-1" x="1879.54" y="2684.55" width="118.37" height="133.74" rx="7.78"/><text class="cls-2" transform="translate(1899.6 2773.83) scale(1.03 1)">162</text><rect class="cls-1" x="2009.62" y="2684.55" width="118.37" height="133.74" rx="7.78"/><text class="cls-2" transform="translate(2029.06 2773.83) scale(1.03 1)">163</text><rect class="cls-1" x="2139.7" y="2684.55" width="118.37" height="133.74" rx="7.78"/><text class="cls-2" transform="translate(2157.61 2773.83) scale(1.03 1)">164</text><rect class="cls-1" x="2269.78" y="2684.55" width="118.37" height="133.74" rx="7.78"/><text class="cls-2" transform="translate(2288.11 2773.83) scale(1.03 1)">165</text><rect class="cls-1" x="448.65" y="2834.43" width="118.37" height="133.74" rx="7.78"/><text class="cls-2" transform="translate(467.08 2923.71) scale(1.03 1)">166</text><rect class="cls-1" x="578.73" y="2834.43" width="118.37" height="133.74" rx="7.78"/><text class="cls-2" transform="translate(599.44 2923.71) scale(1.03 1)">167</text><rect class="cls-1" x="708.81" y="2834.43" width="118.37" height="133.74" rx="7.78"/><text class="cls-2" transform="translate(727.17 2923.71) scale(1.03 1)">168</text><rect class="cls-1" x="838.89" y="2834.43" width="118.37" height="133.74" rx="7.78"/><text class="cls-2" transform="translate(857.67 2923.71) scale(1.03 1)">169</text><rect class="cls-1" x="968.98" y="2834.43" width="118.37" height="133.74" rx="7.78"/><text class="cls-2" transform="translate(989.54 2923.71) scale(1.03 1)">170</text><rect class="cls-1" x="1099.06" y="2834.43" width="118.37" height="133.74" rx="7.78"/><text class="cls-2" transform="translate(1126.67 2923.71) scale(1.03 1)">171</text><rect class="cls-1" x="1229.14" y="2834.43" width="118.37" height="133.74" rx="7.78"/><text class="cls-2" transform="translate(1251.49 2923.71) scale(1.03 1)">172</text><rect class="cls-1" x="1359.22" y="2834.43" width="118.37" height="133.74" rx="7.78"/><text class="cls-2" transform="translate(1380.95 2923.71) scale(1.03 1)">173</text><rect class="cls-1" x="1489.3" y="2834.43" width="118.37" height="133.74" rx="7.78"/><text class="cls-2" transform="translate(1509.49 2923.71) scale(1.03 1)">174</text><rect class="cls-1" x="1619.38" y="2834.43" width="118.37" height="133.74" rx="7.78"/><text class="cls-2" transform="translate(1639.99 2923.71) scale(1.03 1)">175</text><rect class="cls-1" x="1749.46" y="2834.43" width="118.37" height="133.74" rx="7.78"/><text class="cls-2" transform="translate(1770.17 2923.71) scale(1.03 1)">176</text><rect class="cls-1" x="1879.54" y="2834.43" width="118.37" height="133.74" rx="7.78"/><text class="cls-2" transform="translate(1902.53 2923.71) scale(1.03 1)">177</text><rect class="cls-1" x="2009.62" y="2834.43" width="118.37" height="133.74" rx="7.78"/><text class="cls-2" transform="translate(2030.26 2923.71) scale(1.03 1)">178</text><rect class="cls-1" x="2139.7" y="2834.43" width="118.37" height="133.74" rx="7.78"/><text class="cls-2" transform="translate(2160.76 2923.71) scale(1.03 1)">179</text><rect class="cls-1" x="2269.78" y="2834.43" width="118.37" height="133.74" rx="7.78"/><text class="cls-2" transform="translate(2287.99 2923.71) scale(1.03 1)">180</text><rect class="cls-1" x="448.65" y="2984.31" width="118.37" height="133.74" rx="7.78"/><text class="cls-2" transform="translate(473.9 3073.59) scale(1.03 1)">181</text><rect class="cls-1" x="578.73" y="2984.31" width="118.37" height="133.74" rx="7.78"/><text class="cls-2" transform="translate(598.72 3073.59) scale(1.03 1)">182</text><rect class="cls-1" x="708.81" y="2984.31" width="118.37" height="133.74" rx="7.78"/><text class="cls-2" transform="translate(728.18 3073.59) scale(1.03 1)">183</text><rect class="cls-1" x="838.89" y="2984.31" width="118.37" height="133.74" rx="7.78"/><text class="cls-2" transform="translate(856.73 3073.59) scale(1.03 1)">184</text><rect class="cls-1" x="968.98" y="2984.31" width="118.37" height="133.74" rx="7.78"/><text class="cls-2" transform="translate(987.23 3073.59) scale(1.03 1)">185</text><rect class="cls-1" x="1099.06" y="2984.31" width="118.37" height="133.74" rx="7.78"/><text class="cls-2" transform="translate(1117.41 3073.59) scale(1.03 1)">186</text><rect class="cls-1" x="1229.14" y="2984.31" width="118.37" height="133.74" rx="7.78"/><text class="cls-2" transform="translate(1249.77 3073.59) scale(1.03 1)">187</text><rect class="cls-1" x="1359.22" y="2984.31" width="118.37" height="133.74" rx="7.78"/><text class="cls-2" transform="translate(1377.49 3073.59) scale(1.03 1)">188</text><rect class="cls-1" x="1489.3" y="2984.31" width="118.37" height="133.74" rx="7.78"/><text class="cls-2" transform="translate(1508 3073.59) scale(1.03 1)">189</text><rect class="cls-1" x="1619.38" y="2984.31" width="118.37" height="133.74" rx="7.78"/><text class="cls-2" transform="translate(1638 3073.59) scale(1.03 1)">190</text><rect class="cls-1" x="1749.46" y="2984.31" width="118.37" height="133.74" rx="7.78"/><text class="cls-2" transform="translate(1775.13 3073.59) scale(1.03 1)">191</text><rect class="cls-1" x="1879.54" y="2984.31" width="118.37" height="133.74" rx="7.78"/><text class="cls-2" transform="translate(1899.95 3073.59) scale(1.03 1)">192</text><rect class="cls-1" x="2009.62" y="2984.31" width="118.37" height="133.74" rx="7.78"/><text class="cls-2" transform="translate(2029.41 3073.59) scale(1.03 1)">193</text><rect class="cls-1" x="2139.7" y="2984.31" width="118.37" height="133.74" rx="7.78"/><text class="cls-2" transform="translate(2157.95 3073.59) scale(1.03 1)">194</text><rect class="cls-1" x="2269.78" y="2984.31" width="118.37" height="133.74" rx="7.78"/><text class="cls-2" transform="translate(2288.46 3073.59) scale(1.03 1)">195</text><rect class="cls-1" x="448.65" y="3134.19" width="118.37" height="133.74" rx="7.78"/><text class="cls-2" transform="translate(467.43 3223.47) scale(1.03 1)">196</text><rect class="cls-1" x="578.73" y="3134.19" width="118.37" height="133.74" rx="7.78"/><text class="cls-2" transform="translate(599.79 3223.47) scale(1.03 1)">197</text><rect class="cls-1" x="708.81" y="3134.19" width="118.37" height="133.74" rx="7.78"/><text class="cls-2" transform="translate(727.51 3223.47) scale(1.03 1)">198</text><rect class="cls-1" x="838.89" y="3134.19" width="118.37" height="133.74" rx="7.78"/><text class="cls-2" transform="translate(858.02 3223.47) scale(1.03 1)">199</text><rect class="cls-1" x="968.98" y="3134.19" width="118.37" height="133.74" rx="7.78"/><text class="cls-2" transform="translate(981.84 3223.47) scale(1.03 1)">200</text><rect class="cls-1" x="1099.06" y="3134.19" width="118.37" height="133.74" rx="7.78"/><text class="cls-2" transform="translate(1118.97 3223.47) scale(1.03 1)">201</text><rect class="cls-1" x="1229.14" y="3134.19" width="118.37" height="133.74" rx="7.78"/><text class="cls-2" transform="translate(1243.79 3223.47) scale(1.03 1)">202</text><rect class="cls-1" x="1359.22" y="3134.19" width="118.37" height="133.74" rx="7.78"/><text class="cls-2" transform="translate(1373.25 3223.47) scale(1.03 1)">203</text><rect class="cls-1" x="1489.3" y="3134.19" width="118.37" height="133.74" rx="7.78"/><text class="cls-2" transform="translate(1501.79 3223.47) scale(1.03 1)">204</text><rect class="cls-1" x="1619.38" y="3134.19" width="118.37" height="133.74" rx="7.78"/><text class="cls-2" transform="translate(1632.29 3223.47) scale(1.03 1)">205</text><rect class="cls-1" x="1749.46" y="3134.19" width="118.37" height="133.74" rx="7.78"/><text class="cls-2" transform="translate(1762.47 3223.47) scale(1.03 1)">206</text><rect class="cls-1" x="1879.54" y="3134.19" width="118.37" height="133.74" rx="7.78"/><text class="cls-2" transform="translate(1894.84 3223.47) scale(1.03 1)">207</text><rect class="cls-1" x="2009.62" y="3134.19" width="118.37" height="133.74" rx="7.78"/><text class="cls-2" transform="translate(2022.56 3223.47) scale(1.03 1)">208</text><rect class="cls-1" x="2139.7" y="3134.19" width="118.37" height="133.74" rx="7.78"/><text class="cls-2" transform="translate(2153.06 3223.47) scale(1.03 1)">209</text><rect class="cls-1" x="2269.78" y="3134.19" width="118.37" height="133.74" rx="7.78"/><text class="cls-2" transform="translate(2289.7 3223.47) scale(1.03 1)">210</text><rect class="cls-1" x="448.65" y="3284.07" width="118.37" height="133.74" rx="7.78"/><text class="cls-2" transform="translate(475.62 3373.34) scale(1.03 1)">211</text><rect class="cls-1" x="578.73" y="3284.07" width="118.37" height="133.74" rx="7.78"/><text class="cls-2" transform="translate(600.44 3373.34) scale(1.03 1)">212</text><rect class="cls-1" x="708.81" y="3284.07" width="118.37" height="133.74" rx="7.78"/><text class="cls-2" transform="translate(729.9 3373.34) scale(1.03 1)">213</text><rect class="cls-1" x="838.89" y="3284.07" width="118.37" height="133.74" rx="7.78"/><text class="cls-2" transform="translate(858.44 3373.34) scale(1.03 1)">214</text><rect class="cls-1" x="968.98" y="3284.07" width="118.37" height="133.74" rx="7.78"/><text class="cls-2" transform="translate(988.94 3373.34) scale(1.03 1)">215</text><rect class="cls-1" x="1099.06" y="3284.07" width="118.37" height="133.74" rx="7.78"/><text class="cls-2" transform="translate(1119.12 3373.34) scale(1.03 1)">216</text><rect class="cls-1" x="1229.14" y="3284.07" width="118.37" height="133.74" rx="7.78"/><text class="cls-2" transform="translate(1251.49 3373.34) scale(1.03 1)">217</text><rect class="cls-1" x="1359.22" y="3284.07" width="118.37" height="133.74" rx="7.78"/><text class="cls-2" transform="translate(1379.21 3373.34) scale(1.03 1)">218</text><rect class="cls-1" x="1489.3" y="3284.07" width="118.37" height="133.74" rx="7.78"/><text class="cls-2" transform="translate(1509.71 3373.34) scale(1.03 1)">219</text><rect class="cls-1" x="1619.38" y="3284.07" width="118.37" height="133.74" rx="7.78"/><text class="cls-2" transform="translate(1634.03 3373.34) scale(1.03 1)">220</text><rect class="cls-1" x="1749.46" y="3284.07" width="118.37" height="133.74" rx="7.78"/><text class="cls-2" transform="translate(1771.16 3373.34) scale(1.03 1)">221</text><rect class="cls-1" x="1879.54" y="3284.07" width="118.37" height="133.74" rx="7.78"/><text class="cls-2" transform="translate(1895.98 3373.34) scale(1.03 1)">222</text><rect class="cls-1" x="2009.62" y="3284.07" width="118.37" height="133.74" rx="7.78"/><text class="cls-2" transform="translate(2025.44 3373.34) scale(1.03 1)">223</text><rect class="cls-1" x="2139.7" y="3284.07" width="118.37" height="133.74" rx="7.78"/><text class="cls-2" transform="translate(2153.98 3373.34) scale(1.03 1)">224</text><rect class="cls-1" x="2269.78" y="3284.07" width="118.37" height="133.74" rx="7.78"/><text class="cls-2" transform="translate(2284.49 3373.34) scale(1.03 1)">225</text></g></g></svg>